<?xml version="1.0" encoding="utf-8"?>
<!-- Generator: Adobe Illustrator 16.0.3, SVG Export Plug-In . SVG Version: 6.00 Build 0)  -->
<!DOCTYPE svg PUBLIC "-//W3C//DTD SVG 1.1//EN" "http://www.w3.org/Graphics/SVG/1.1/DTD/svg11.dtd">
<svg version="1.1" id="Capa_1" xmlns="http://www.w3.org/2000/svg" xmlns:xlink="http://www.w3.org/1999/xlink" x="0px" y="0px"
	 width="196.686px" height="38.751px" viewBox="0 0 196.686 38.751" enable-background="new 0 0 196.686 38.751"
	 xml:space="preserve">
<g>
	<path fill="#F5EF8A" d="M22,34.701c-1.543,0-4.83-1.145-9.868-3.435l-1.273-0.616c-1.794-0.82-3.187-1.433-4.178-1.845
		c-0.991-0.408-1.943-0.751-2.855-1.024c0,4.235-0.095,7.211-0.284,8.917c-0.347,1.366-0.802,2.053-1.37,2.053
		c-0.283,0-0.542-0.09-0.778-0.258C1.156,38.324,1.04,38.1,1.04,37.826c0-0.615,0.046-1.453,0.14-2.512
		c0.189-2.185,0.283-4.065,0.283-5.637v-2.152c-0.314-0.238-0.542-0.452-0.684-0.641c-0.142-0.188-0.214-0.401-0.214-0.642
		c0-0.307,0.088-0.589,0.261-0.846c0.173-0.256,0.369-0.494,0.59-0.719c0.22-0.22,0.378-0.397,0.472-0.534
		c0.031-0.723,0.047-1.966,0.047-3.744c0-4.443-0.583-9.143-1.746-14.095L0,5.28c0-0.479,0.181-0.854,0.544-1.127
		c0.361-0.274,0.778-0.411,1.251-0.411c0.345,0,0.699,0.736,1.063,2.206c0.361,1.47,0.652,3.338,0.873,5.611
		c0.219,2.274,0.329,4.553,0.329,6.846v3.431c0.441-0.511,1.432-1.691,2.975-3.536c1.542-1.846,3.052-3.69,4.532-5.534
		c2.486-3.179,4.407-6.015,5.761-8.51c0.345-0.683,0.769-1.572,1.275-2.665C19.073,0.531,19.374,0,19.5,0
		c0.346,0,0.52,0.41,0.52,1.231c0,0.99-0.144,1.938-0.427,2.844c-0.283,0.906-0.693,1.873-1.228,2.896
		c-0.881,1.675-1.896,3.324-3.044,4.946c-1.149,1.627-2.605,3.46-4.366,5.51c-0.663,0.752-1.245,1.403-1.747,1.948
		c-0.505,0.546-0.945,1.041-1.323,1.486c-1.637,1.776-2.943,3.264-3.918,4.459c0.409,0.171,1.361,0.547,2.856,1.127
		c1.495,0.583,3.438,1.316,5.831,2.206c1.7,0.649,3.116,1.17,4.248,1.564c1.134,0.392,2.109,0.742,2.929,1.049
		c0.189,0.067,0.408,0.146,0.66,0.229c0.251,0.084,0.519,0.181,0.802,0.281c1.07,0.379,1.604,0.791,1.604,1.232
		c0,0.445-0.093,0.835-0.282,1.178C22.427,34.529,22.221,34.701,22,34.701z"/>
	<path fill="#F5EF8A" d="M56.37,37.211c-0.377,0-0.73-0.49-1.061-1.458c-0.331-0.974-0.497-2.452-0.497-4.436
		c0.032-3.859,0.088-8.524,0.166-13.992c0.079-5.466,0.15-9.584,0.214-12.353c0.031-0.991,0.196-1.913,0.494-2.768
		c0.298-0.854,0.826-1.281,1.582-1.281c0.252,0,0.417,0.145,0.497,0.435c0.078,0.291,0.117,0.846,0.117,1.666
		c0,0.035-0.008,0.145-0.024,0.333c-0.015,0.188-0.022,0.521-0.022,0.999c-0.567,8.986-0.85,17.754-0.85,26.294
		c0,1.094,0.228,2.254,0.685,3.487c0.456,1.231,0.685,1.876,0.685,1.945c0,0.343-0.206,0.615-0.615,0.819
		C57.33,37.111,56.874,37.211,56.37,37.211z"/>
	<path fill="#F5EF8A" d="M94.516,18.299c-2.894,0.546-4.519,0.854-4.861,0.924l-3.07,0.563c0,1.775,0.022,3.636,0.072,5.585
		c0.044,1.947,0.117,3.657,0.211,5.127c0.126,1.982,0.349,3.504,0.665,4.563c0.311,1.058,0.486,1.654,0.516,1.791
		c0,0.345-0.197,0.659-0.592,0.948c-0.394,0.291-0.761,0.437-1.106,0.437c-0.192,0-0.348-0.062-0.474-0.179
		c-0.128-0.122-0.237-0.317-0.333-0.591c-0.187-0.478-0.367-1.367-0.54-2.664c-0.174-1.299-0.305-2.734-0.4-4.306
		c-0.097-1.399-0.166-3.033-0.214-4.897c-0.046-1.859-0.072-3.661-0.072-5.404c-1.763,0.304-3.57,0.683-5.427,1.128
		c-1.668,0.374-2.661,0.562-2.977,0.562c-0.375,0-0.73-0.117-1.062-0.356c-0.329-0.241-0.496-0.566-0.496-0.977
		c0-0.442,0.146-0.734,0.428-0.872c0.282-0.134,0.755-0.204,1.412-0.204c0.475,0,1.165-0.092,2.081-0.28
		c0.911-0.188,1.492-0.315,1.747-0.384c2.107-0.445,3.54-0.735,4.293-0.873c0-0.72-0.03-1.656-0.093-2.817
		c-0.063-1.571-0.095-2.769-0.095-3.591c0-1.331,0.041-2.366,0.12-3.098c0.076-0.736,0.228-1.394,0.449-1.976
		c0.249-0.684,0.722-1.024,1.414-1.024c0.286,0,0.473,0.05,0.566,0.154c0.096,0.102,0.142,0.29,0.142,0.564
		c0,0.204-0.078,0.802-0.236,1.794c-0.157,0.99-0.234,2.308-0.234,3.947c0,1.263,0.03,2.681,0.091,4.254l0.051,1.386
		c1.414-0.24,4.214-0.875,8.401-1.899c0.251-0.069,0.465-0.306,0.638-0.719c0.173-0.409,0.354-0.614,0.544-0.614
		c0.343,0,0.701,0.215,1.059,0.641c0.367,0.426,0.546,0.863,0.546,1.309c0,0.581-0.232,1.025-0.687,1.332
		C96.539,17.887,95.711,18.131,94.516,18.299z"/>
	<path fill="#F5EF8A" d="M134.88,19.786c0,1.775,0.023,3.636,0.07,5.585c0.049,1.947,0.12,3.657,0.215,5.127
		c0.124,1.982,0.345,3.504,0.663,4.563c0.312,1.058,0.483,1.654,0.518,1.791c0,0.345-0.196,0.659-0.592,0.948
		c-0.395,0.291-0.762,0.437-1.11,0.437c-0.19,0-0.346-0.062-0.47-0.179c-0.128-0.122-0.236-0.317-0.332-0.591
		c-0.187-0.478-0.37-1.367-0.542-2.664c-0.174-1.299-0.308-2.734-0.401-4.306c-0.095-1.399-0.162-3.033-0.214-4.897
		c-0.046-1.859-0.101-9.317-0.164-10.479c-0.063-1.571-0.096-2.769-0.096-3.591c0-1.331,0.039-2.366,0.118-3.098
		c0.08-0.736,0.229-1.394,0.449-1.976c0.252-0.684,0.725-1.024,1.418-1.024c0.283,0,0.47,0.05,0.565,0.154
		c0.095,0.102,0.142,0.29,0.142,0.564c0,0.204-0.079,0.802-0.237,1.794c-0.156,0.99-0.236,2.308-0.236,3.947
		c0,1.263,0.032,2.681,0.095,4.254L134.88,19.786z"/>
	<path fill="#F5EF8A" d="M151.854,19.079c0,1.774,0.024,3.635,0.071,5.585c0.047,1.946,0.118,3.657,0.214,5.126
		c0.125,1.982,0.345,3.504,0.66,4.564c0.313,1.058,0.487,1.654,0.52,1.791c0,0.343-0.198,0.657-0.591,0.948
		c-0.395,0.291-0.765,0.437-1.109,0.437c-0.189,0-0.348-0.063-0.474-0.18c-0.125-0.12-0.235-0.317-0.329-0.59
		c-0.19-0.479-0.368-1.367-0.541-2.665c-0.177-1.298-0.308-2.735-0.402-4.306c-0.094-1.4-0.165-3.033-0.215-4.896
		c-0.044-1.86-0.102-9.32-0.164-10.479c-0.06-1.573-0.094-2.767-0.094-3.591c0-1.33,0.039-2.365,0.117-3.102
		c0.078-0.732,0.23-1.391,0.45-1.972c0.25-0.683,0.724-1.025,1.416-1.025c0.282,0,0.471,0.051,0.563,0.155
		c0.097,0.102,0.145,0.29,0.145,0.563c0,0.205-0.081,0.804-0.237,1.793c-0.159,0.993-0.235,2.307-0.235,3.949
		c0,1.264,0.029,2.682,0.094,4.254L151.854,19.079z"/>
	<path fill="#F5EF8A" d="M164.065,38.688c-2.109,0-3.669-0.631-4.676-1.896c-1.006-1.261-1.51-2.836-1.51-4.714
		c0-1.64,0.274-3.676,0.828-6.104c0.547-2.42,1.328-4.594,2.336-6.506c0.065-0.136,0.321-0.643,0.777-1.514
		c0.458-0.872,0.968-1.54,1.534-1.999c0.569-0.464,1.165-0.69,1.797-0.69c0.279,0,0.543,0.074,0.778,0.227
		c0.234,0.158,0.355,0.354,0.355,0.592c0,0.07-0.088,0.229-0.261,0.487c-0.172,0.258-0.31,0.453-0.404,0.589
		c-1.07,1.403-1.933,2.787-2.597,4.152c-0.88,1.743-1.564,3.468-2.052,5.177c-0.487,1.71-0.73,3.57-0.73,5.589
		c0,2.698,1.508,4.046,4.531,4.046c1.415,0,2.729-0.442,3.941-1.332c1.213-0.887,2.179-1.971,2.904-3.254
		c0.725-1.282,1.086-2.449,1.086-3.512c0-1.195-0.361-2.237-1.086-3.127c-0.726-0.888-1.718-1.826-2.975-2.817
		c-0.821-0.65-1.417-1.182-1.795-1.591s-0.563-0.752-0.563-1.022c0-0.41,0.265-0.745,0.803-1c0.529-0.256,1.163-0.386,1.884-0.386
		c0.412,0,0.678,0.024,0.805,0.075c0.124,0.055,0.188,0.147,0.188,0.284c0,0.07-0.055,0.181-0.166,0.332
		c-0.109,0.156-0.163,0.284-0.163,0.384c0,0.105,0.314,0.446,0.944,1.025c1.258,1.129,2.313,2.272,3.161,3.437
		c0.85,1.16,1.278,2.529,1.278,4.098c0,1.335-0.459,2.871-1.371,4.614c-0.915,1.743-2.205,3.239-3.872,4.485
		C168.109,38.064,166.206,38.688,164.065,38.688z"/>
</g>
<path fill="#F5EF8A" d="M141.711,10.972c1.891-0.333,3.865-0.71,5.925-1.13c2.064-0.417,3.866-0.818,5.411-1.201
	c2.088-0.517,3.668-1.05,4.738-1.605c1.069-0.556,1.68-0.867,1.818-0.927c0.362-0.066,0.731,0.102,1.107,0.493
	c0.376,0.395,0.593,0.785,0.652,1.179c0.033,0.215-0.006,0.404-0.11,0.569c-0.106,0.167-0.294,0.328-0.569,0.487
	c-0.479,0.303-1.393,0.676-2.743,1.116c-1.349,0.439-2.852,0.858-4.507,1.261c-1.474,0.372-3.193,0.754-5.166,1.164
	c-1.971,0.399-9.888,1.86-11.11,2.148c-1.664,0.364-2.929,0.625-3.797,0.78c-1.419,0.25-2.521,0.398-3.315,0.445
	c-0.794,0.046-1.52,0-2.173-0.14c-0.773-0.158-1.214-0.631-1.336-1.414c-0.047-0.322-0.023-0.545,0.07-0.673
	c0.091-0.128,0.284-0.217,0.575-0.267c0.217-0.037,0.868-0.06,1.946-0.068c1.081-0.006,2.489-0.166,4.235-0.476
	c1.346-0.235,2.846-0.534,4.506-0.899L141.711,10.972z"/>
<g>
	<path fill="#F5EF8A" d="M186.229,37.295c-2.015,0-3.502-0.604-4.463-1.809c-0.963-1.209-1.442-2.71-1.442-4.506
		c0-1.564,0.265-3.506,0.786-5.823c0.526-2.315,1.271-4.389,2.234-6.217c0.059-0.128,0.308-0.608,0.741-1.441
		c0.436-0.835,0.926-1.471,1.466-1.912c0.544-0.439,1.113-0.66,1.716-0.66c0.268,0,0.518,0.074,0.743,0.221
		c0.225,0.148,0.337,0.334,0.337,0.564c0,0.064-0.083,0.217-0.246,0.463c-0.165,0.245-0.294,0.435-0.385,0.565
		c-1.021,1.339-1.847,2.66-2.48,3.963c-0.841,1.662-1.495,3.313-1.957,4.944c-0.469,1.631-0.701,3.409-0.701,5.333
		c0,2.581,1.441,3.866,4.328,3.866c1.353,0,2.604-0.423,3.764-1.271c1.157-0.846,2.081-1.881,2.772-3.105
		c0.692-1.225,1.037-2.344,1.037-3.355c0-1.143-0.345-2.137-1.037-2.984c-0.691-0.848-1.639-1.747-2.842-2.69
		c-0.783-0.622-1.351-1.128-1.712-1.519c-0.36-0.391-0.541-0.718-0.541-0.98c0-0.389,0.256-0.708,0.769-0.953
		c0.506-0.245,1.111-0.368,1.801-0.368c0.392,0,0.648,0.025,0.766,0.074c0.121,0.049,0.183,0.141,0.183,0.269
		c0,0.065-0.055,0.173-0.155,0.32c-0.107,0.145-0.163,0.27-0.163,0.367c0,0.095,0.302,0.423,0.901,0.977
		c1.203,1.077,2.21,2.17,3.021,3.279c0.812,1.11,1.218,2.415,1.218,3.915c0,1.273-0.436,2.742-1.308,4.405
		c-0.871,1.666-2.104,3.093-3.696,4.285C190.092,36.698,188.273,37.295,186.229,37.295z"/>
</g>
<g>
	<path fill="#F5EF8A" d="M122.634,35.493c0,0.384-0.147,0.825-0.442,1.317c-0.295,0.497-0.589,0.747-0.885,0.747
		c-0.501,0-0.884-0.338-1.15-1.009c-0.267-0.672-0.397-1.453-0.397-2.353c0-0.769,0.043-3.073,0.131-6.914l0.044-1.823
		c0-0.735-0.175-1.265-0.527-1.585c-1.327,2.433-2.566,4.544-3.716,6.339c-1.151,1.792-2.61,3.481-4.379,5.063
		c-1.768,1.585-3.625,2.38-5.571,2.38c-0.943,0-1.67-0.323-2.188-0.963c-0.518-0.641-0.773-1.472-0.773-2.497
		c0-1.278,0.53-3.031,1.589-5.257c1.063-2.224,2.419-4.48,4.07-6.771c1.65-2.288,3.302-4.17,4.951-5.643
		c1.091-0.96,1.961-1.606,2.611-1.944c0.646-0.337,1.222-0.502,1.723-0.502c0.471,0,0.957,0.159,1.46,0.479
		c0.5,0.32,0.929,0.77,1.282,1.344c0.354,0.578,0.531,1.235,0.531,1.969c0,0.994-0.25,1.937-0.752,2.833l0.752-0.239
		c0.322,0,0.517,0.431,0.577,1.296c0.028,0.512,0.063,1.553,0.109,3.119c0.043,1.569,0.079,2.866,0.108,3.89
		c0.03,1.058,0.059,2.082,0.091,3.074c0.031,0.991,0.057,1.775,0.088,2.352c0.027,0.226,0.145,0.456,0.353,0.695
		C122.528,35.135,122.634,35.332,122.634,35.493z M118.786,22.001c0.353-0.961,0.529-2.001,0.529-3.12
		c0-0.672-0.185-1.254-0.551-1.752c-0.37-0.497-0.868-0.744-1.482-0.744c-0.735,0-1.681,0.545-2.829,1.633
		c-1.33,1.214-2.726,2.842-4.201,4.874s-2.699,4.038-3.67,6.021c-0.974,1.987-1.462,3.555-1.462,4.707
		c0,0.959,0.415,1.441,1.239,1.441c1.591,0,3.125-0.64,4.601-1.921c1.473-1.282,2.79-2.809,3.955-4.585
		C116.079,26.78,117.37,24.597,118.786,22.001z"/>
</g>
<g>
	<g>
		<path fill="#F5EF8A" d="M27.955,36.132c4.623-9.361,8.032-18.859,10.758-28.969c-0.615-0.217-1.23-0.435-1.846-0.653
			c2.546,3.778,3.619,8.327,5.067,12.592c1.768,5.205,4.66,9.924,7.024,14.862c0.323,0.675,2.498,1.72,1.902,0.477
			c-2.372-4.955-5.143-9.682-7.024-14.861c-1.615-4.444-2.659-9.088-5.336-13.06C38.288,6.203,36.889,5,36.655,5.867
			c-2.691,9.978-6.055,19.416-10.623,28.666C25.629,35.35,27.631,36.787,27.955,36.132L27.955,36.132z"/>
	</g>
</g>
</svg>
